<?xml version="1.0" encoding="UTF-8"?>
<svg width="400" height="300" viewBox="0 0 400 300" xmlns="http://www.w3.org/2000/svg">
    <!-- Background branch -->
    <path d="M50 200 C100 180, 200 220, 350 180" fill="none" stroke="#8b4513" stroke-width="8"/>
    
    <!-- Bird body -->
    <ellipse cx="200" cy="150" rx="80" ry="40" fill="#909090"/>
    
    <!-- Tail -->
    <path d="M280 150 L380 140 L380 160 L280 150" fill="#808080"/>
    
    <!-- Head -->
    <circle cx="140" cy="140" r="25" fill="#909090"/>
    
    <!-- Beak -->
    <path d="M120 135 L100 140 L120 145" fill="#696969" stroke="#000" stroke-width="1"/>
    
    <!-- Eye -->
    <circle cx="130" cy="135" r="3" fill="#000"/>
    
    <!-- Wing -->
    <path d="M180 150 Q200 120 240 150" fill="#808080"/>
    <path d="M190 150 Q210 130 230 150" fill="#ffffff" opacity="0.3"/>
    
    <!-- Feet -->
    <path d="M190 190 L190 210" stroke="#696969" stroke-width="2"/>
    <path d="M210 190 L210 210" stroke="#696969" stroke-width="2"/>
    
    <!-- Decorative elements -->
    <path d="M50 250 Q200 230 350 250" stroke="#8b4513" stroke-width="2" fill="none" opacity="0.5"/>
    <path d="M50 260 Q200 240 350 260" stroke="#8b4513" stroke-width="1" fill="none" opacity="0.3"/>
</svg>